HIERARCHY
ROOT pelvis
{
	OFFSET 0.003123 -0.351407 0.012037
	CHANNELS 6 Xposition Yposition Zposition Zrotation Yrotation Xrotation 
	JOINT left_hip
	{
		OFFSET 0.058189 -0.092763 -0.026001
		CHANNELS 3 Zrotation Yrotation Xrotation
		JOINT left_knee
		{
			OFFSET 0.054695 -0.378753 -0.009396
			CHANNELS 3 Zrotation Yrotation Xrotation
			JOINT left_ankle
			{
				OFFSET -0.043453 -0.403059 -0.031876
				CHANNELS 3 Zrotation Yrotation Xrotation
				JOINT left_foot
				{
					OFFSET 0.047257 -0.057997 0.118216
					CHANNELS 3 Zrotation Yrotation Xrotation
					End Site
					{
						OFFSET 0.000000 0.000000 0.000000
					}
				}
			}
		}
	}
	JOINT right_hip
	{
		OFFSET -0.063267 -0.103908 -0.021250
		CHANNELS 3 Zrotation Yrotation Xrotation
		JOINT right_knee
		{
			OFFSET -0.044210 -0.362380 -0.016824
			CHANNELS 3 Zrotation Yrotation Xrotation
			JOINT right_ankle
			{
				OFFSET 0.015417 -0.410728 -0.020192
				CHANNELS 3 Zrotation Yrotation Xrotation
				JOINT right_foot
				{
					OFFSET -0.038812 -0.058328 0.119049
					CHANNELS 3 Zrotation Yrotation Xrotation
					End Site
					{
						OFFSET 0.000000 0.000000 0.000000
					}
				}
			}
		}
	}
	JOINT spine_1
	{
		OFFSET -0.002763 0.109891 -0.027618
		CHANNELS 3 Zrotation Yrotation Xrotation
		JOINT spine_2
		{
			OFFSET 0.009448 0.131853 -0.005940
			CHANNELS 3 Zrotation Yrotation Xrotation
			JOINT spine_3
			{
				OFFSET -0.011330 0.052235 0.028447
				CHANNELS 3 Zrotation Yrotation Xrotation
				JOINT neck
				{
					OFFSET -0.012164 0.165167 -0.031615
					CHANNELS 3 Zrotation Yrotation Xrotation
					JOINT head
					{
						OFFSET 0.024783 0.160452 0.020737
						CHANNELS 3 Zrotation Yrotation Xrotation
						End Site
						{
							OFFSET 0.000000 0.000000 0.000000
						}
					}
				}
				JOINT left_collar
				{
					OFFSET 0.046364 0.084944 -0.007220
					CHANNELS 3 Zrotation Yrotation Xrotation
					JOINT left_shoulder
					{
						OFFSET 0.119239 0.057728 -0.015461
						CHANNELS 3 Zrotation Yrotation Xrotation
						JOINT left_elbow
						{
							OFFSET 0.254123 -0.072151 -0.042459
							CHANNELS 3 Zrotation Yrotation Xrotation
							JOINT left_wrist
							{
								OFFSET 0.251987 0.023221 -0.002472
								CHANNELS 3 Zrotation Yrotation Xrotation
								JOINT left_index_1
								{
									OFFSET 0.101902 -0.008688 0.019351
									CHANNELS 3 Zrotation Yrotation Xrotation
									JOINT left_index_2
									{
										OFFSET 0.030149 -0.011154 0.001151
										CHANNELS 3 Zrotation Yrotation Xrotation
										JOINT left_index_3
										{
											OFFSET 0.006504 -0.021577 -0.002433
											CHANNELS 3 Zrotation Yrotation Xrotation
											End Site
											{
												OFFSET 0.000000 0.000000 0.000000
											}
										}
									}
								}
								JOINT left_middle_1
								{
									OFFSET 0.109398 -0.006328 -0.003981
									CHANNELS 3 Zrotation Yrotation Xrotation
									JOINT left_middle_2
									{
										OFFSET 0.026472 -0.015218 -0.004641
										CHANNELS 3 Zrotation Yrotation Xrotation
										JOINT left_middle_3
										{
											OFFSET 0.005022 -0.023347 -0.001911
											CHANNELS 3 Zrotation Yrotation Xrotation
											End Site
											{
												OFFSET 0.000000 0.000000 0.000000
											}
										}
									}
								}
								JOINT left_pinky_1
								{
									OFFSET 0.084047 -0.014539 -0.043750
									CHANNELS 3 Zrotation Yrotation Xrotation
									JOINT left_pinky_2
									{
										OFFSET 0.012124 -0.014448 -0.005375
										CHANNELS 3 Zrotation Yrotation Xrotation
										JOINT left_pinky_3
										{
											OFFSET 0.003798 -0.018853 0.000167
											CHANNELS 3 Zrotation Yrotation Xrotation
											End Site
											{
												OFFSET 0.000000 0.000000 0.000000
											}
										}
									}
								}
								JOINT left_ring_1
								{
									OFFSET 0.097444 -0.009268 -0.027345
									CHANNELS 3 Zrotation Yrotation Xrotation
									JOINT left_ring_2
									{
										OFFSET 0.023561 -0.016057 -0.001895
										CHANNELS 3 Zrotation Yrotation Xrotation
										JOINT left_ring_3
										{
											OFFSET 0.004257 -0.023548 0.000814
											CHANNELS 3 Zrotation Yrotation Xrotation
											End Site
											{
												OFFSET 0.000000 0.000000 0.000000
											}
										}
									}
								}
								JOINT left_thumb_1
								{
									OFFSET 0.040636 -0.017977 0.025611
									CHANNELS 3 Zrotation Yrotation Xrotation
									JOINT left_thumb_2
									{
										OFFSET 0.021637 -0.017639 0.011623
										CHANNELS 3 Zrotation Yrotation Xrotation
										JOINT left_thumb_3
										{
											OFFSET 0.024002 -0.008356 0.006548
											CHANNELS 3 Zrotation Yrotation Xrotation
											End Site
											{
												OFFSET 0.000000 0.000000 0.000000
											}
										}
									}
								}
							}
						}
					}
				}
				JOINT right_collar
				{
					OFFSET -0.047695 0.084339 -0.013400
					CHANNELS 3 Zrotation Yrotation Xrotation
					JOINT right_shoulder
					{
						OFFSET -0.102578 0.053524 -0.012669
						CHANNELS 3 Zrotation Yrotation Xrotation
						JOINT right_elbow
						{
							OFFSET -0.271150 -0.036492 -0.026467
							CHANNELS 3 Zrotation Yrotation Xrotation
							JOINT right_wrist
							{
								OFFSET -0.249267 -0.004533 -0.015325
								CHANNELS 3 Zrotation Yrotation Xrotation
								JOINT right_index_1
								{
									OFFSET -0.099881 -0.011783 0.019600
									CHANNELS 3 Zrotation Yrotation Xrotation
									JOINT right_index_2
									{
										OFFSET -0.030148 -0.011154 0.001151
										CHANNELS 3 Zrotation Yrotation Xrotation
										JOINT right_index_3
										{
											OFFSET -0.006505 -0.021577 -0.002432
											CHANNELS 3 Zrotation Yrotation Xrotation
											End Site
											{
												OFFSET 0.000000 0.000000 0.000000
											}
										}
									}
								}
								JOINT right_middle_1
								{
									OFFSET -0.107376 -0.009422 -0.003734
									CHANNELS 3 Zrotation Yrotation Xrotation
									JOINT right_middle_2
									{
										OFFSET -0.026472 -0.015218 -0.004641
										CHANNELS 3 Zrotation Yrotation Xrotation
										JOINT right_middle_3
										{
											OFFSET -0.005022 -0.023347 -0.001911
											CHANNELS 3 Zrotation Yrotation Xrotation
											End Site
											{
												OFFSET 0.000000 0.000000 0.000000
											}
										}
									}
								}
								JOINT right_pinky_1
								{
									OFFSET -0.082027 -0.017634 -0.043503
									CHANNELS 3 Zrotation Yrotation Xrotation
									JOINT right_pinky_2
									{
										OFFSET -0.012123 -0.014448 -0.005374
										CHANNELS 3 Zrotation Yrotation Xrotation
										JOINT right_pinky_3
										{
											OFFSET -0.003798 -0.018852 0.000167
											CHANNELS 3 Zrotation Yrotation Xrotation
											End Site
											{
												OFFSET 0.000000 0.000000 0.000000
											}
										}
									}
								}
								JOINT right_ring_1
								{
									OFFSET -0.095423 -0.012362 -0.027099
									CHANNELS 3 Zrotation Yrotation Xrotation
									JOINT right_ring_2
									{
										OFFSET -0.023561 -0.016057 -0.001895
										CHANNELS 3 Zrotation Yrotation Xrotation
										JOINT right_ring_3
										{
											OFFSET -0.004257 -0.023548 0.000816
											CHANNELS 3 Zrotation Yrotation Xrotation
											End Site
											{
												OFFSET 0.000000 0.000000 0.000000
											}
										}
									}
								}
								JOINT right_thumb_1
								{
									OFFSET -0.038613 -0.021074 0.025861
									CHANNELS 3 Zrotation Yrotation Xrotation
									JOINT right_thumb_2
									{
										OFFSET -0.021636 -0.017639 0.011623
										CHANNELS 3 Zrotation Yrotation Xrotation
										JOINT right_thumb_3
										{
											OFFSET -0.024004 -0.008353 0.006547
											CHANNELS 3 Zrotation Yrotation Xrotation
											End Site
											{
												OFFSET 0.000000 0.000000 0.000000
											}
										}
									}
								}
							}
						}
					}
				}
			}
		}
	}
}
MOTION
Frames: 4
Frame Time: 0.050000
0.076818 0.878728 0.040184 -1.846610 -5.079836 -6.067287 20.327445 0.149901 -0.913988 -4.157694 -0.993462 21.622750 8.942336 19.923888 8.772341 0.000000 0.000000 0.000000 -18.504102 1.007728 -0.559473 3.553569 0.072865 15.325164 -3.166680 -6.990262 1.350535 0.000000 0.000000 0.000000 -1.336355 -0.796732 11.321112 -5.582160 -0.677438 -13.170162 9.188313 -1.965051 22.540807 2.679910 -0.170677 -2.164295 0.000000 0.000000 0.000000 7.824777 -4.398254 2.154853 -62.503764 -53.892201 7.985178 135.631110 -57.199481 -89.665428 21.553339 -7.053890 -17.283947 -7.464200 4.367289 1.054692 -65.695855 2.182301 -2.995021 0.000000 0.000000 0.000000 -18.785968 -14.366845 -6.370297 -50.845984 -13.466910 -20.570111 0.000000 0.000000 0.000000 12.481137 -25.188040 -35.760073 -24.215339 -6.201801 -11.427371 0.000000 0.000000 0.000000 -11.328233 -23.242806 -12.082133 -32.885451 -14.737215 -21.426011 0.000000 0.000000 0.000000 21.866708 25.012508 11.690109 -15.448313 -17.195606 -0.981680 0.000000 0.000000 0.000000 -8.541765 5.997828 3.712134 60.929652 43.622207 10.201063 -143.647622 38.175850 -85.336916 -18.881708 1.357521 -29.663101 0.423344 -5.224830 1.024490 47.542863 7.886887 -6.662857 0.000000 0.000000 0.000000 15.408507 13.389717 -5.887767 29.013630 13.478506 -23.308132 0.000000 0.000000 0.000000 -1.250954 25.640002 -33.515256 -0.865954 -0.364082 1.185147 0.000000 0.000000 0.000000 17.055904 21.974808 -9.289628 2.225611 5.832650 -17.851843 0.000000 0.000000 0.000000 -27.428893 -22.339723 2.623437 22.101629 13.291602 1.468819 0.000000 0.000000 0.000000 
0.075876 0.877761 0.037544 -2.261579 -5.698414 -6.476570 21.007742 0.245676 -1.194639 -4.425431 -0.959318 23.041112 9.003059 20.092866 9.146709 0.000000 0.000000 0.000000 -17.797899 0.973500 -1.151036 3.169314 0.191043 16.541497 -3.076134 -6.535882 0.849604 0.000000 0.000000 0.000000 -0.631612 -0.902862 12.434704 -6.038818 -0.423629 -12.814491 9.196250 -2.193315 21.639105 2.821119 -0.115279 -2.638193 0.000000 0.000000 0.000000 7.335365 -4.671748 2.237741 -59.944670 -55.235842 7.648857 132.414507 -56.707934 -85.292730 22.502071 -7.343220 -19.211238 -3.344491 4.414378 0.887538 -72.872621 0.686842 -4.512262 0.000000 0.000000 0.000000 -20.507245 -15.678491 -6.368743 -50.521296 -15.295219 -23.117947 0.000000 0.000000 0.000000 6.997903 -28.464991 -39.365046 -19.080034 -4.187472 -8.616058 0.000000 0.000000 0.000000 -12.805327 -25.912795 -12.873976 -32.381489 -15.767891 -23.019055 0.000000 0.000000 0.000000 22.512054 24.439626 9.618635 -19.989087 -17.786186 0.317521 0.000000 0.000000 0.000000 -8.182880 6.511133 3.960600 60.020977 45.178413 10.430716 -141.787854 37.408496 -80.975133 -18.913817 1.097462 -31.133840 1.471581 -4.517882 0.753756 55.294075 12.257198 -10.525896 0.000000 0.000000 0.000000 17.382033 16.568245 -6.508785 31.980683 16.282085 -26.494631 0.000000 0.000000 0.000000 0.094863 29.097930 -37.344144 -1.231754 0.039223 -0.112877 0.000000 0.000000 0.000000 18.397143 26.861065 -10.826081 2.223378 7.232860 -21.452686 0.000000 0.000000 0.000000 -27.694034 -22.097567 1.502333 22.662063 14.596666 0.894393 0.000000 0.000000 0.000000 
0.076347 0.875504 0.037544 -2.518781 -6.710257 -7.202680 21.587174 0.348758 -0.533873 -4.958556 -0.780321 24.033433 9.370411 20.574936 8.998965 0.000000 0.000000 0.000000 -17.369018 0.956509 -2.422385 2.696341 0.424173 19.532981 -2.874182 -5.758640 0.196979 0.000000 0.000000 0.000000 -0.297780 -1.026944 14.005638 -6.753061 -0.318475 -13.343419 9.454948 -2.389218 21.696208 2.443655 0.107254 -3.685709 0.000000 0.000000 0.000000 7.814854 -3.744856 1.787314 -62.044568 -55.454132 9.089596 133.013019 -55.782531 -84.913130 21.427572 -7.051251 -19.767461 -2.049051 6.403893 1.302519 -72.959548 2.482807 -2.818546 0.000000 0.000000 0.000000 -19.398832 -14.825933 -6.320006 -55.053855 -15.293991 -20.990258 0.000000 0.000000 0.000000 7.364053 -27.842990 -39.046575 -19.955700 -4.025544 -8.026404 0.000000 0.000000 0.000000 -12.239792 -25.307427 -12.899954 -34.734606 -17.028632 -23.193681 0.000000 0.000000 0.000000 23.823250 23.962200 8.329824 -18.297967 -17.272743 -0.371919 0.000000 0.000000 0.000000 -7.782599 7.001540 4.201236 59.110822 46.243915 10.279471 -141.196787 36.682100 -78.871072 -18.063693 0.761922 -31.758332 1.974724 -4.231957 0.634066 61.144174 9.894650 -7.355207 0.000000 0.000000 0.000000 20.066080 16.576782 -6.205014 34.278576 14.972419 -22.637242 0.000000 0.000000 0.000000 -0.030067 28.110920 -36.370978 4.150527 0.516879 -1.284749 0.000000 0.000000 0.000000 17.780077 25.473300 -10.523028 9.157560 9.177125 -20.077097 0.000000 0.000000 0.000000 -30.742541 -21.066834 -0.374860 26.031290 10.183297 3.500866 0.000000 0.000000 0.000000 
0.075405 0.874537 0.033585 -2.628534 -6.661563 -6.569507 22.235798 0.411705 -1.830582 -5.627501 -0.607217 25.098008 8.813265 19.521074 8.200703 0.000000 0.000000 0.000000 -17.376678 0.963324 -2.769083 3.099050 0.303188 18.589581 -3.086731 -5.970445 -0.135201 0.000000 0.000000 0.000000 -0.491058 -0.979997 13.406504 -5.433633 -0.969845 -13.766914 9.147560 -2.480533 22.590958 1.671257 0.081883 -2.833132 0.000000 0.000000 0.000000 6.988202 -3.903243 1.850714 -63.078289 -55.133409 9.361261 135.005040 -55.230789 -86.465978 21.671844 -5.822329 -19.254755 -0.562400 7.733105 1.798936 -65.187931 5.530547 1.399422 0.000000 0.000000 0.000000 -15.698220 -12.246594 -5.861261 -54.644396 -12.241302 -16.633543 0.000000 0.000000 0.000000 7.744682 -27.884314 -39.074147 -17.749847 -1.966382 -4.025561 0.000000 0.000000 0.000000 -12.346112 -24.612371 -12.602314 -32.034695 -13.103435 -18.180648 0.000000 0.000000 0.000000 24.856844 25.305092 10.543599 -19.485673 -16.543363 0.726894 0.000000 0.000000 0.000000 -7.864021 7.300526 4.329102 57.662750 47.292732 10.197162 -141.332817 36.720375 -79.200401 -18.204317 -0.021714 -31.204492 3.669221 -5.069960 0.653254 67.598540 8.398533 -6.726247 0.000000 0.000000 0.000000 22.907576 17.100170 -5.971701 39.545417 16.878367 -23.580857 0.000000 0.000000 0.000000 6.305958 30.085051 -36.369665 0.702877 0.034197 -0.046271 0.000000 0.000000 0.000000 24.450644 27.350251 -9.035744 10.127414 9.545729 -20.359765 0.000000 0.000000 0.000000 -26.840825 -19.084418 -1.630321 22.011007 7.734050 2.263333 0.000000 0.000000 0.000000 
